<?xml version="1.0" standalone="no"?>
<!DOCTYPE svg PUBLIC "-//W3C//DTD SVG 20010904//EN"
 "http://www.w3.org/TR/2001/REC-SVG-20010904/DTD/svg10.dtd">
<svg version="1.0" xmlns="http://www.w3.org/2000/svg"
 width="700.000000pt" height="700.000000pt" viewBox="0 0 700.000000 700.000000"
 preserveAspectRatio="xMidYMid meet">
<metadata>
Created by potrace 1.11, written by Peter Selinger 2001-2013
</metadata>
<g transform="translate(0.000000,700.000000) scale(0.100000,-0.100000)"
fill="#000000" stroke="none">
<path d="M3470 6912 c-69 -7 -148 -26 -194 -46 -43 -19 -130 -69 -463 -262
-26 -15 -144 -84 -278 -160 -22 -12 -580 -335 -630 -364 -16 -10 -88 -51 -160
-92 -71 -41 -173 -99 -225 -130 -52 -31 -111 -65 -130 -76 -118 -66 -577 -332
-635 -368 -145 -88 -228 -199 -270 -359 -13 -53 -15 -236 -15 -1562 0 -1497 0
-1502 21 -1570 36 -117 89 -200 173 -272 28 -23 242 -153 476 -288 234 -135
540 -311 680 -392 140 -82 388 -225 550 -318 162 -94 425 -246 585 -338 159
-92 308 -176 331 -185 135 -58 311 -54 450 12 44 21 175 93 214 119 39 25 242
139 247 139 4 0 14 6 22 14 9 7 39 26 66 41 28 15 181 103 340 195 160 92 306
177 325 188 19 10 150 86 290 167 140 81 273 157 295 170 22 12 137 79 255
147 118 69 235 136 260 150 143 79 270 162 308 198 84 81 141 187 163 304 5
29 9 657 9 1535 0 1309 -2 1494 -15 1546 -38 144 -115 256 -230 334 -32 22
-351 208 -545 319 -19 11 -224 129 -455 262 -231 133 -510 295 -620 358 -110
64 -312 181 -450 260 -137 79 -266 153 -285 164 -19 11 -70 40 -112 65 -42 24
-103 53 -135 64 -57 21 -166 36 -213 31z m156 -310 c21 -11 95 -53 164 -92 69
-40 139 -81 157 -91 18 -10 193 -111 390 -225 197 -114 414 -239 483 -279 69
-40 271 -157 450 -260 179 -103 339 -196 355 -205 555 -318 573 -331 608 -428
16 -44 17 -159 15 -1537 l-3 -1490 -29 -52 c-16 -29 -38 -61 -50 -72 -20 -19
-150 -95 -811 -476 -170 -98 -346 -199 -390 -225 -44 -26 -188 -109 -320 -185
-132 -76 -280 -161 -330 -190 -382 -223 -696 -401 -730 -413 -51 -17 -133 -17
-176 1 -19 8 -270 150 -559 317 -289 166 -545 314 -570 328 -25 13 -49 28 -55
32 -5 4 -134 78 -285 165 -151 87 -322 186 -380 220 -58 34 -130 76 -161 93
-31 17 -154 88 -273 157 -119 69 -219 125 -222 125 -23 0 -97 79 -123 132
l-31 61 0 1486 0 1486 24 51 c46 99 5 71 621 426 215 124 566 326 780 450 215
124 464 268 555 321 91 52 181 104 200 115 385 222 478 272 513 279 55 11 133
0 183 -25z"/>
<path d="M2818 5012 c-39 -81 -99 -205 -133 -277 -34 -71 -115 -238 -180 -370
-64 -132 -134 -276 -155 -320 -21 -44 -84 -174 -140 -290 -56 -115 -131 -268
-165 -340 -35 -71 -112 -231 -172 -355 -60 -124 -140 -288 -177 -365 -37 -77
-102 -212 -145 -300 -43 -88 -74 -162 -70 -165 5 -3 41 -6 81 -5 l73 0 75 151
c41 83 115 233 164 335 49 101 127 263 174 359 46 96 112 234 147 305 34 72
97 202 140 290 91 187 205 423 299 618 36 76 107 222 157 325 50 103 112 230
137 282 l45 94 71 -145 c83 -169 221 -454 354 -729 52 -107 128 -265 169 -350
42 -85 104 -213 138 -285 34 -71 100 -206 145 -300 45 -93 106 -219 135 -280
29 -60 106 -220 172 -355 66 -135 126 -260 134 -278 7 -17 18 -32 24 -33 46
-5 137 -4 145 1 6 4 -29 88 -86 206 -53 109 -118 244 -144 299 -26 55 -96 199
-155 320 -59 121 -124 256 -145 300 -21 44 -79 166 -130 270 -143 293 -281
578 -450 930 -32 66 -97 201 -145 300 -48 99 -100 208 -117 242 l-29 63 -85
-1 -85 -1 -71 -146z"/>
<path d="M3230 5156 c0 -2 41 -89 91 -192 50 -104 113 -234 139 -289 26 -55
92 -190 145 -300 54 -110 119 -245 145 -300 26 -55 84 -174 128 -265 44 -91
113 -235 155 -320 41 -85 114 -236 162 -335 48 -99 106 -220 130 -270 23 -49
97 -201 163 -338 66 -136 128 -264 137 -285 l17 -38 79 1 c43 1 80 3 83 5 2 3
-30 75 -71 160 -104 215 -213 439 -293 605 -86 179 -194 402 -305 630 -48 99
-116 241 -152 315 -36 74 -104 214 -150 310 -105 217 -186 383 -319 660 -57
118 -108 222 -112 230 -7 11 -31 16 -91 18 -44 2 -81 1 -81 -2z"/>
<path d="M3574 5133 c7 -16 41 -84 74 -153 33 -69 101 -210 152 -315 88 -180
154 -318 310 -640 37 -77 111 -230 165 -340 53 -110 124 -256 157 -325 192
-398 421 -870 493 -1014 l60 -121 81 0 81 -1 -13 31 c-7 16 -36 77 -64 135
-29 58 -76 155 -105 215 -29 61 -99 205 -155 320 -56 116 -126 260 -155 320
-29 61 -99 205 -155 320 -56 116 -121 251 -145 300 -23 50 -82 171 -130 270
-48 99 -118 243 -155 320 -188 388 -251 518 -294 608 l-48 97 -84 0 -85 0 15
-27z"/>
<path d="M3900 5155 c0 -2 43 -93 96 -202 109 -224 203 -419 309 -638 40 -82
112 -231 160 -330 48 -99 120 -247 160 -330 40 -82 106 -220 147 -305 87 -179
192 -395 288 -595 213 -441 252 -520 260 -525 5 -3 42 -5 82 -5 61 1 73 4 70
17 -1 9 -56 125 -121 259 -65 134 -141 291 -169 349 -27 58 -89 186 -137 285
-155 320 -236 487 -305 630 -37 77 -109 226 -160 330 -51 105 -114 235 -140
290 -67 141 -282 583 -333 685 l-42 85 -82 2 c-46 1 -83 0 -83 -2z"/>
<path d="M2947 4588 c-25 -51 -84 -174 -132 -273 -243 -502 -351 -725 -440
-910 -34 -71 -100 -206 -145 -300 -45 -93 -108 -224 -140 -290 -32 -66 -105
-218 -164 -338 -58 -120 -107 -226 -108 -235 -3 -15 8 -17 75 -17 l78 0 51
105 c28 58 96 197 151 310 54 113 121 250 147 305 26 55 87 181 135 280 101
208 145 299 430 890 42 88 104 215 137 282 l60 122 -42 78 c-23 43 -44 80 -45
81 -2 2 -24 -38 -48 -90z"/>
<path d="M3097 4203 c-36 -76 -118 -246 -182 -378 -65 -132 -139 -285 -165
-340 -26 -55 -87 -181 -135 -280 -48 -99 -111 -229 -140 -290 -46 -96 -221
-457 -304 -627 -23 -48 -25 -57 -12 -61 20 -5 150 -2 155 4 1 2 21 42 44 89
22 47 77 162 122 255 45 94 104 215 130 270 26 55 85 177 130 270 150 309 222
459 275 570 29 61 90 187 136 280 45 94 83 172 83 175 1 3 5 11 9 17 7 11 -64
183 -76 183 -2 0 -33 -62 -70 -137z"/>
<path d="M3235 3795 c-53 -110 -119 -245 -145 -300 -26 -55 -87 -181 -135
-280 -48 -99 -113 -234 -145 -300 -32 -66 -92 -192 -135 -280 -97 -201 -195
-406 -195 -409 0 -1 35 -1 78 -1 75 1 102 7 102 25 0 4 48 106 106 226 58 121
121 251 139 289 18 39 81 169 140 290 59 121 126 261 150 310 23 50 81 170
129 267 47 97 86 181 86 186 0 6 -17 47 -39 93 l-39 84 -97 -200z"/>
<path d="M3220 3212 c-13 -5 -73 -122 -63 -123 24 -3 630 -4 639 -1 7 2 -1 27
-20 65 l-31 62 -257 0 c-141 0 -262 -1 -268 -3z"/>
<path d="M3060 2900 c-16 -33 -30 -62 -30 -65 0 -3 203 -5 450 -5 248 0 450 3
450 6 0 3 -14 33 -31 65 l-32 59 -388 0 -389 0 -30 -60z"/>
<path d="M2940 2645 c-16 -32 -25 -62 -21 -65 12 -7 1119 -5 1126 2 5 5 -37
98 -52 117 -2 3 -233 5 -514 5 l-510 1 -29 -60z"/>
</g>
</svg>
