<?xml version="1.0" standalone="no"?>
<!DOCTYPE svg PUBLIC "-//W3C//DTD SVG 20010904//EN"
 "http://www.w3.org/TR/2001/REC-SVG-20010904/DTD/svg10.dtd">
<svg version="1.0" xmlns="http://www.w3.org/2000/svg"
 width="500.000000pt" height="500.000000pt" viewBox="0 0 500.000000 500.000000"
 preserveAspectRatio="xMidYMid meet">
<metadata>
Created by potrace 1.11, written by Peter Selinger 2001-2013
</metadata>
<g transform="translate(0.000000,500.000000) scale(0.100000,-0.100000)"
fill="#000000" stroke="none">
<path d="M1382 4975 c-30 -14 -60 -25 -67 -25 -7 0 -38 -11 -69 -25 -31 -14
-63 -25 -71 -25 -8 0 -39 -11 -69 -25 -30 -14 -63 -25 -73 -25 -11 0 -23 -4
-29 -9 -5 -5 -47 -23 -94 -39 -120 -42 -147 -52 -213 -78 -32 -13 -65 -24 -72
-24 -8 0 -39 -11 -69 -25 -30 -14 -63 -25 -73 -25 -11 0 -23 -4 -28 -9 -6 -5
-48 -23 -95 -39 -93 -32 -125 -44 -215 -78 -33 -12 -79 -28 -102 -35 l-43 -12
0 -2239 0 -2238 2500 0 2500 0 0 2500 0 2500 -1782 0 -1783 0 -53 -25z m2975
-617 l23 -21 0 -1834 0 -1834 -25 -24 -24 -25 -1832 0 -1833 0 -23 22 -23 21
0 1839 c0 1825 0 1838 20 1858 20 20 33 20 1857 20 l1837 0 23 -22z"/>
<path d="M770 2500 l0 -1730 1730 0 1730 0 0 1730 0 1730 -1730 0 -1730 0 0
-1730z m1780 1088 c28 -26 1060 -2098 1060 -2128 0 -25 -32 -58 -65 -66 -52
-13 -67 10 -273 421 l-197 395 -575 0 -575 0 -195 -391 c-115 -230 -205 -399
-219 -410 -13 -10 -34 -19 -46 -19 -29 0 -75 43 -75 70 0 29 1031 2101 1058
2128 28 28 72 28 102 0z"/>
<path d="M2247 2855 l-247 -495 500 0 500 0 -247 495 c-137 272 -250 495 -253
495 -3 0 -116 -223 -253 -495z"/>
</g>
</svg>
